<svg xmlns="http://www.w3.org/2000/svg" viewBox="0 0 1200 750" width="1200" height="750">
  <defs>
    <linearGradient id="bg" x1="0" y1="0" x2="1" y2="1">
      <stop offset="0%" stop-color="#0c2f4e"/>
      <stop offset="100%" stop-color="#0f172a"/>
    </linearGradient>
    <linearGradient id="accent" x1="0" y1="0" x2="1" y2="1">
      <stop offset="0%" stop-color="#38bdf8"/>
      <stop offset="100%" stop-color="#34d399"/>
    </linearGradient>
    <pattern id="grid" width="48" height="48" patternUnits="userSpaceOnUse">
      <path d="M48 0H0V48" fill="none" stroke="#ffffff" stroke-opacity="0.05"/>
    </pattern>
  </defs>
  <rect width="1200" height="750" fill="url(#bg)"/>
  <rect width="1200" height="750" fill="url(#grid)"/>
  <g transform="rotate(-4 560 330)">
    <rect x="300" y="140" width="520" height="360" rx="20" fill="#ffffff" fill-opacity="0.08" stroke="url(#accent)" stroke-width="2"/>
    <g fill="#ffffff" fill-opacity="0.14">
      <rect x="340" y="180" width="140" height="120" rx="12"/>
      <rect x="500" y="180" width="140" height="120" rx="12"/>
      <rect x="660" y="180" width="120" height="120" rx="12"/>
      <rect x="340" y="330" width="120" height="120" rx="12"/>
      <rect x="660" y="330" width="140" height="120" rx="12"/>
    </g>
    <rect x="490" y="322" width="152" height="136" rx="12" fill="url(#accent)" opacity="0.85"/>
    <rect x="512" y="352" width="70" height="12" rx="6" fill="#0f172a" opacity="0.55"/>
    <rect x="512" y="378" width="108" height="8" rx="4" fill="#0f172a" opacity="0.35"/>
    <rect x="512" y="396" width="88" height="8" rx="4" fill="#0f172a" opacity="0.35"/>
    <circle cx="610" cy="428" r="12" fill="#0f172a" opacity="0.5"/>
  </g>
  <text x="600" y="640" text-anchor="middle" font-family="Inter, 'Segoe UI', 'PingFang SC', sans-serif" font-size="44" font-weight="700" fill="#ffffff">DevTools</text>
  <text x="600" y="688" text-anchor="middle" font-family="Inter, 'Segoe UI', 'PingFang SC', sans-serif" font-size="24" fill="#94a3b8">40 tools · all local · no upload</text>
</svg>
